<svg width="95" height="22" viewBox="0 0 95 22" fill="none" xmlns="http://www.w3.org/2000/svg">
<rect width="95" height="22" fill="#F5F5F5"/>
<g clip-path="url(#clip0_216_6)">
<rect width="1280" height="700" transform="translate(-403 -614)" fill="white"/>
<rect x="-403" y="-614" width="1280" height="700" fill="#080808"/>
<rect x="-32.5" y="-18.5" width="159" height="59" rx="5.5" stroke="#1B1B1B"/>
<g opacity="0.3" clip-path="url(#clip1_216_6)">
<path d="M26.6153 4.67636L31.1923 4.67605C35.1118 4.67579 37.5902 7.20436 37.5904 11.1492C37.5907 15.094 35.1254 17.6229 31.1932 17.6232L26.6162 17.6235L26.6153 4.67636ZM31.0919 15.2588C33.5574 15.2587 34.9102 13.6781 34.91 11.162C34.9098 8.63328 33.5568 7.05291 31.0913 7.05307L29.2959 7.05319L29.2965 15.2589L31.0919 15.2588Z" fill="white"/>
<path d="M44.5318 10.7821C44.1777 10.5671 43.7099 10.466 43.2168 10.4661C42.3318 10.4661 41.6111 10.934 41.4215 11.7938L41.4219 17.6351L38.8173 17.6353L38.8167 8.20313L41.4339 8.20296L41.434 9.12594C41.8385 8.4558 42.6098 7.98794 43.5454 7.98787C43.9879 7.98784 44.3925 8.07632 44.5316 8.15217L44.5318 10.7821Z" fill="white"/>
<rect x="-23.5" y="-16.5" width="159" height="59" rx="5.5" stroke="#1B1B1B"/>
<path d="M49.7541 17.8495C47.0104 17.8497 45.1264 15.8268 45.1262 12.9314C45.126 10.0234 47.0098 7.98764 49.7534 7.98745C52.4971 7.98727 54.3685 10.0101 54.3687 12.9308C54.3689 15.8262 52.4978 17.8493 49.7541 17.8495ZM49.7536 10.2127C48.4386 10.2128 47.7307 11.3508 47.7308 12.9313C47.7309 14.4864 48.4517 15.637 49.754 15.6369C51.0563 15.6368 51.7769 14.4988 51.7768 12.931C51.7767 11.3505 51.0559 10.2127 49.7536 10.2127Z" fill="white"/>
<path d="M58.1118 21.1237L55.4945 21.1239L55.4937 8.20202L58.1109 8.20185L58.111 8.98576C58.5282 8.47998 59.4638 7.99946 60.4753 7.99939C63.2189 7.99921 64.7743 10.275 64.7744 12.9428C64.7746 15.598 63.2196 17.8613 60.4759 17.8615C59.4644 17.8615 58.5288 17.3811 58.1115 16.8754L58.1118 21.1237ZM58.1113 14.4731C58.4275 15.1306 59.1229 15.573 59.8815 15.573C61.2976 15.5729 62.1447 14.4349 62.1446 12.9303C62.1445 11.4131 61.2973 10.2752 59.8812 10.2753C59.0973 10.2753 58.4272 10.7432 58.1111 11.3754L58.1113 14.4731Z" fill="white"/>
<path d="M68.5426 17.6333L65.9001 17.6335L65.8992 3.9151L68.5417 3.91492L68.542 8.98504C68.9592 8.47926 69.8948 7.99874 70.9063 7.99867C73.65 7.99849 75.1927 10.2363 75.1929 12.9421C75.1931 15.6478 73.6507 17.8606 70.907 17.8607C69.8955 17.8608 68.9598 17.3804 68.5426 16.8747L68.5426 17.6333ZM68.5424 14.4724C68.8333 15.1298 69.5287 15.5723 70.3126 15.5723C71.7287 15.5722 72.5757 14.4342 72.5756 12.9296C72.5755 11.4124 71.7283 10.2745 70.3122 10.2746C69.5536 10.2746 68.833 10.7425 68.5422 11.3747L68.5424 14.4724Z" fill="white"/>
<path d="M80.7564 17.8727C78.0127 17.8729 76.1286 15.8501 76.1284 12.9547C76.1282 10.0466 78.012 8.01086 80.7557 8.01068C83.4994 8.01049 85.3708 10.0334 85.371 12.954C85.3712 15.8494 83.4874 17.8726 80.7564 17.8727ZM80.7559 10.236C79.4409 10.2361 78.7329 11.374 78.733 12.9545C78.7332 14.5097 79.4539 15.6602 80.7562 15.6601C82.0585 15.66 82.7791 14.522 82.779 12.9542C82.7789 11.3738 82.0582 10.2359 80.7559 10.236Z" fill="white"/>
<path d="M91.2503 12.764L94.6897 17.6442L91.7943 17.6444L89.7711 14.6859L87.723 17.6447L84.9793 17.6449L88.3802 12.8274L85.181 8.21266L88.0764 8.21247L89.8973 10.8928L91.7431 8.21222L94.4867 8.21204L91.2503 12.764Z" fill="white"/>
<path d="M6.94141 0.239777L0.126759 4.62759L4.84311 8.43302L11.6957 4.19693L6.94141 0.239777Z" fill="white"/>
<path d="M0.127264 12.1506L6.94251 16.626L11.6963 12.6682L4.84311 8.43303L0.127264 12.1506Z" fill="white"/>
<path d="M11.6963 12.6682L16.4506 16.6253L23.2399 12.1996L18.5362 8.4321L11.6963 12.6682Z" fill="white"/>
<path d="M23.2394 4.66398L16.4495 0.239152L11.6957 4.19694L18.5362 8.43212L23.2394 4.66398Z" fill="white"/>
<path d="M11.709 13.5153L6.94258 17.4731L4.89422 16.1457L4.89432 17.6376L11.7095 21.7211L18.5116 17.6367L18.5115 16.1447L16.4759 17.4725L11.709 13.5153Z" fill="white"/>
</g>
</g>
<defs>
<clipPath id="clip0_216_6">
<rect width="1280" height="700" fill="white" transform="translate(-403 -614)"/>
</clipPath>
<clipPath id="clip1_216_6">
<rect width="94.8276" height="22" fill="white"/>
</clipPath>
</defs>
</svg>
