<svg width="82" height="28" viewBox="0 0 82 28" fill="none" xmlns="http://www.w3.org/2000/svg">
<rect width="82" height="28" fill="#F5F5F5"/>
<g clip-path="url(#clip0_216_6)">
<rect width="1280" height="700" transform="translate(-789 -611)" fill="white"/>
<rect x="-789" y="-611" width="1280" height="700" fill="#080808"/>
<rect x="-38.5" y="-15.5" width="159" height="59" rx="5.5" stroke="#1B1B1B"/>
<g opacity="0.3" clip-path="url(#clip1_216_6)">
<path d="M28.0091 14.6153C28.0117 13.4788 27.6629 12.3693 27.0102 11.4388C26.3577 10.5083 25.4333 9.80234 24.3639 9.41764C24.4612 8.92161 24.5102 8.41731 24.5103 7.91182C24.5112 6.23864 23.9813 4.60829 22.9972 3.25517C22.013 1.90206 20.6252 0.895867 19.033 0.381274C17.4411 -0.133321 15.7267 -0.129814 14.1368 0.39129C12.5468 0.912396 11.163 1.92426 10.1844 3.28138C9.46233 2.7219 8.57757 2.41297 7.66415 2.40142C6.75073 2.38988 5.85845 2.67632 5.12243 3.21735C4.3864 3.75841 3.84677 4.52458 3.58524 5.39985C3.32373 6.27509 3.35458 7.21172 3.67312 8.06786C2.60121 8.45865 1.67471 9.16832 1.01819 10.1014C0.361679 11.0345 0.00666836 12.1463 0.000910749 13.2872C-0.00198709 14.4276 0.348717 15.5409 1.00474 16.4737C1.66075 17.4066 2.58983 18.1133 3.66405 18.4962C3.569 18.9921 3.52052 19.4956 3.51927 20.0004C3.51778 21.6716 4.04709 23.3002 5.03086 24.6513C6.01465 26.0022 7.40205 27.0059 8.99305 27.5176C10.5841 28.0291 12.2964 28.0223 13.8833 27.4979C15.4701 26.9736 16.8494 25.9588 17.8223 24.5999C18.5424 25.1609 19.4256 25.4716 20.3382 25.4852C21.2508 25.4988 22.1429 25.2143 22.8791 24.6751C23.6156 24.1358 24.156 23.3711 24.4183 22.4971C24.6808 21.6228 24.6512 20.6871 24.3337 19.8314C25.4061 19.4412 26.3333 18.7317 26.9901 17.7986C27.6471 16.8654 28.002 15.7533 28.0075 14.612" fill="white"/>
<path d="M11.0119 12.0148L17.1412 14.8128L23.3269 9.3947C23.4159 8.94767 23.4601 8.49285 23.4586 8.03702C23.4582 6.56132 22.9855 5.1245 22.1097 3.93679C21.2339 2.74908 20.001 1.87284 18.5913 1.43629C17.1816 0.999749 15.6693 1.02581 14.2755 1.51067C12.8817 1.99553 11.6797 2.91371 10.8454 4.13089L9.81526 9.46072L11.0119 12.0148Z" fill="black"/>
<path d="M4.66845 18.5057C4.57811 18.9598 4.53287 19.4216 4.53342 19.8846C4.53355 21.3665 5.00867 22.8093 5.88906 24.0012C6.76945 25.1932 8.00872 26.0715 9.42501 26.5074C10.8413 26.9433 12.36 26.9137 13.7583 26.423C15.1565 25.9324 16.3607 25.0063 17.1939 23.781L18.2142 18.4625L16.8515 15.858L10.6995 13.0551L4.66845 18.5057Z" fill="black"/>
<path d="M4.63027 7.89991L8.83034 8.89103L9.74979 4.11469C9.17849 3.68155 8.48227 3.44513 7.76537 3.44082C7.04846 3.43649 6.34943 3.66452 5.77297 4.09075C5.19651 4.51695 4.77362 5.11845 4.56762 5.80513C4.36162 6.49182 4.3836 7.22676 4.63027 7.89991Z" fill="black"/>
<path d="M4.2657 8.89948C3.34419 9.2105 2.54252 9.80098 1.97219 10.5888C1.40185 11.3766 1.09119 12.3225 1.08343 13.295C1.08283 14.235 1.36833 15.1528 1.90198 15.9266C2.43561 16.7004 3.19212 17.2934 4.07093 17.6267L9.9636 12.2998L8.88088 9.98824L4.2657 8.89948Z" fill="black"/>
<path d="M18.2716 23.7809C18.842 24.2117 19.5365 24.4468 20.2513 24.4504C20.9661 24.4541 21.663 24.2267 22.2378 23.8018C22.8127 23.3768 23.2347 22.7773 23.4409 22.0927C23.6469 21.4083 23.626 20.6754 23.3813 20.0038L19.1845 19.0273L18.2716 23.7809Z" fill="black"/>
<path d="M19.1243 17.922L23.7443 19.001C24.6664 18.6908 25.4686 18.1006 26.0391 17.3125C26.6096 16.5246 26.9198 15.5782 26.9266 14.6054C26.9257 13.6675 26.6396 12.752 26.1065 11.9804C25.5731 11.2088 24.8179 10.6175 23.9407 10.2851L17.8983 15.5763L19.1243 17.922Z" fill="black"/>
<path d="M39.1622 19.5974L39.7222 19.5403L39.7613 20.6799C38.5152 20.8681 37.2578 20.9716 35.9976 20.9894C34.6086 20.9895 33.6241 20.5875 33.0445 19.7834C32.465 18.9792 32.1756 17.7279 32.1766 16.0295C32.1764 12.6467 33.5209 10.9546 36.2102 10.9534C37.5126 10.9533 38.4839 11.3168 39.1243 12.0439C39.7647 12.771 40.086 13.9105 40.0882 15.4624L40.0118 16.5629L33.6434 16.5633C33.6435 17.6312 33.8368 18.4224 34.2231 18.9368C34.6096 19.4512 35.2813 19.7083 36.2385 19.7083C37.198 19.7114 38.1724 19.6744 39.1622 19.5974ZM38.641 15.4104C38.6409 14.2264 38.4515 13.3902 38.0727 12.9019C37.6938 12.4135 37.0764 12.1688 36.2201 12.1678C35.3638 12.1678 34.7203 12.4251 34.2894 12.9395C33.8587 13.454 33.6367 14.2777 33.6238 15.4108L38.641 15.4104Z" fill="white"/>
<path d="M42.1072 20.9125L42.1063 8.21484L43.5535 8.21475L43.5544 20.9124L42.1072 20.9125Z" fill="white"/>
<path d="M52.6686 14.0583L52.6689 18.9258C52.669 19.4141 53.8704 19.388 53.8704 19.388L53.7972 20.6675C52.7798 20.6676 51.9381 20.7523 51.4335 20.2624C50.3407 20.7479 49.1569 20.9949 47.9612 20.987C47.0745 20.9871 46.3989 20.7359 45.9344 20.2334C45.4699 19.7309 45.2381 19.0088 45.2391 18.0667C45.2391 17.1269 45.4772 16.4351 45.9536 15.9911C46.4301 15.5472 47.1761 15.2758 48.192 15.177L51.2215 14.8886L51.2214 14.0584C51.2214 13.4073 51.0802 12.9373 50.7981 12.6487C50.6434 12.5036 50.4611 12.3912 50.2618 12.3185C50.0625 12.2458 49.8508 12.2142 49.639 12.2255L45.8362 12.2258L45.8361 10.9511L49.5428 10.9509C50.6368 10.9508 51.4312 11.202 51.9261 11.7044C52.4211 12.2069 52.6686 12.9915 52.6686 14.0583ZM46.7221 17.995C46.7222 19.179 47.2106 19.771 48.1874 19.7709C49.0686 19.7699 49.9432 19.6196 50.7741 19.3263L51.2169 19.1717L51.2167 15.9875L48.3662 16.2579C47.7867 16.31 47.3683 16.4773 47.1111 16.7594C46.8539 17.0415 46.7242 17.4534 46.7221 17.995Z" fill="white"/>
<path d="M58.3189 12.2445C56.9156 12.2446 56.214 12.733 56.2141 13.7097C56.2141 14.1612 56.377 14.4797 56.7026 14.6653C57.0281 14.8508 57.7614 15.044 58.9019 15.2447C60.048 15.4454 60.8587 15.7253 61.334 16.0845C61.8094 16.4437 62.0478 17.1187 62.0488 18.1096C62.0489 19.1014 61.7305 19.8286 61.0934 20.291C60.4564 20.7534 59.5269 20.9851 58.3048 20.9863C57.5072 20.9864 54.8439 20.6903 54.8439 20.6903L54.9219 19.4368C56.4522 19.5832 57.5575 19.6922 58.3047 19.6921C59.052 19.6921 59.6201 19.5732 60.0124 19.3355C60.4047 19.0978 60.6 18.699 60.6 18.139C60.6 17.579 60.4371 17.1997 60.0985 16.9995C59.7599 16.7992 59.0306 16.6105 57.8992 16.4298C56.7678 16.2492 55.9619 15.9855 55.4866 15.6388C55.0112 15.2921 54.7719 14.6475 54.7718 13.7082C54.7717 12.7689 55.0973 12.0803 55.7663 11.6244C56.4353 11.1685 57.2558 10.9487 58.2456 10.9486C59.0302 10.9486 61.7537 11.1486 61.7537 11.1486L61.7538 12.4103C60.3163 12.3469 59.141 12.2444 58.3189 12.2445Z" fill="white"/>
<path d="M69.0241 12.3968L65.9555 12.397L65.9558 17.0105C65.9559 18.1163 66.0362 18.843 66.1969 19.1902C66.3597 19.5386 66.7406 19.7111 67.3446 19.7111L69.062 19.5954L69.1598 20.7919C68.5094 20.9122 67.8509 20.9834 67.19 21.0053C66.1872 21.0053 65.4926 20.7607 65.1062 20.2712C64.7199 19.7817 64.5271 18.849 64.5281 17.4729L64.5278 12.3971L63.1636 12.3972L63.1635 11.1437L64.5342 11.1436L64.534 8.19058L65.9617 8.19049L65.9619 11.1435L69.024 11.1433L69.0241 12.3968Z" fill="white"/>
<path d="M71.036 9.91083L71.0359 8.23083L72.4831 8.23074L72.4832 9.91074L71.036 9.91083ZM71.0367 20.9106L71.0361 11.1432L72.4833 11.1431L72.484 20.9105L71.0367 20.9106Z" fill="white"/>
<path d="M78.7524 10.9489C79.4752 10.9797 80.195 11.0574 80.9077 11.1815L81.3701 11.2385L81.3132 12.4155C80.5568 12.3197 79.7963 12.2621 79.0341 12.2431C77.9401 12.2431 77.1973 12.5036 76.8055 13.0246C76.4137 13.5456 76.2175 14.5104 76.2164 15.9191C76.2165 17.33 76.4001 18.3109 76.7669 18.8623C77.1337 19.4136 77.8988 19.6903 79.0623 19.6924L81.3413 19.5196L81.4 20.7162C80.5128 20.8665 79.6167 20.9569 78.7172 20.9866C77.213 20.9867 76.1744 20.6004 75.6013 19.8277C75.0283 19.055 74.7417 17.7527 74.7415 15.9208C74.7414 14.0878 75.0501 12.8012 75.6676 12.061C76.285 11.3208 77.3133 10.9501 78.7524 10.9489Z" fill="white"/>
</g>
</g>
<defs>
<clipPath id="clip0_216_6">
<rect width="1280" height="700" fill="white" transform="translate(-789 -611)"/>
</clipPath>
<clipPath id="clip1_216_6">
<rect width="81.3953" height="28" fill="white"/>
</clipPath>
</defs>
</svg>
