<svg width="88" height="14" viewBox="0 0 88 14" fill="none" xmlns="http://www.w3.org/2000/svg">
<rect width="88" height="14" fill="#F5F5F5"/>
<g clip-path="url(#clip0_216_6)">
<rect width="1280" height="700" transform="translate(-596 -618)" fill="white"/>
<rect x="-596" y="-618" width="1280" height="700" fill="#080808"/>
<rect x="-35.5" y="-22.5" width="159" height="59" rx="5.5" stroke="#1B1B1B"/>
<g opacity="0.3">
<path d="M6.1296 3.8305L7.52264 3.83041C8.39329 3.83035 9.29877 4.00442 9.29884 5.01437C9.2989 5.88502 8.74173 6.51193 7.10491 6.51204L5.57256 6.51214L6.1296 3.8305ZM0.000890672 13.6867L4.0407 13.6864L4.87626 9.68135L7.62751 9.68116C11.1101 9.68093 13.3736 7.38226 13.3735 4.70066C13.3733 1.77528 11.806 0.417176 9.36819 0.41734L2.78608 0.417782L0.000890672 13.6867Z" fill="white"/>
<path d="M18.3538 4.97894L18.8416 8.94907L16.2993 8.94924L18.3538 4.97894ZM9.61307 13.686L13.7922 13.6857L14.802 11.8051L19.1204 11.8048L19.3295 13.6854L23.3345 13.6851L21.3137 0.416542L17.2739 0.416814L9.61307 13.686Z" fill="white"/>
<path d="M25.0407 8.80934L22.1844 0.416473L26.2939 0.416198L27.548 5.3614L30.7865 0.415896L35.5924 0.415573L29.1154 8.77424L28.1058 13.6848L24.0311 13.685L25.0407 8.80934Z" fill="white"/>
<path d="M45.3441 8.63376C45.1004 9.99199 44.0559 13.997 38.5185 13.9974C34.6529 13.9977 32.8069 11.4903 32.8067 7.93808C32.8064 3.65449 35.4878 0.0672333 40.0151 0.0669294C42.9753 0.0667307 45.6222 1.35511 45.6921 5.32527L41.8264 5.32553C41.8612 4.07179 41.2691 3.37531 40.0154 3.3754C37.7517 3.37555 36.916 5.98755 36.9161 7.86815C36.9162 8.98258 37.1949 10.6542 39.0755 10.6541C40.3641 10.654 41.0954 9.7833 41.3391 8.5992L45.3441 8.63376Z" fill="white"/>
<path d="M47.7117 0.414763L51.8212 0.414487L50.8463 5.01158L54.5727 5.01133L55.5475 0.414237L59.657 0.413961L56.8718 13.6828L52.7972 13.6831L53.8764 8.42432L50.1501 8.42457L49.036 13.6834L44.9613 13.6836L47.7117 0.414763Z" fill="white"/>
<path d="M60.7362 0.413875L71.7063 0.413139L71.01 3.82613L64.1145 3.82659L63.7664 5.46344L70.1743 5.46301L69.5128 8.63221L63.1049 8.63264L62.7567 10.2695L69.7916 10.269L69.0953 13.682L57.951 13.6828L60.7362 0.413875Z" fill="white"/>
<path d="M74.5282 6.64679L71.4631 0.413143L75.9208 0.412844L77.2096 3.86053L79.8561 0.41258L84.6969 0.412255L79.16 6.64647L82.3993 13.6811L77.8023 13.6814L76.3393 9.98996L73.2401 13.6817L68.2251 13.6821L74.5282 6.64679Z" fill="white"/>
<path d="M85.2188 1.00427C85.2187 0.516702 85.567 0.133592 86.0545 0.13356C86.5073 0.133529 86.8904 0.516589 86.8904 1.00415C86.8904 1.49172 86.5422 1.87483 86.0546 1.87486C85.6019 1.87489 85.2188 1.49183 85.2188 1.00427ZM85.0446 1.00428C85.0447 1.59632 85.4974 2.0142 86.0546 2.01416C86.6119 2.01413 87.0646 1.59618 87.0645 1.00414C87.0645 0.446926 86.6117 -0.00578147 86.0545 -0.00574406C85.4973 -0.00570666 85.0446 0.447061 85.0446 1.00428ZM85.6715 1.59628L85.8457 1.59626L85.8456 1.1087L86.0198 1.10869L86.3332 1.63106L86.5422 1.63104L86.1939 1.10868C86.368 1.10867 86.5073 1.00418 86.5073 0.795223C86.5073 0.551441 86.368 0.446972 86.0894 0.446991L85.6715 0.447019L85.6715 1.59628ZM85.8456 0.586311L86.0894 0.586295C86.2287 0.586286 86.3332 0.621105 86.3332 0.760409C86.3332 0.934538 86.1939 0.969374 86.0197 0.969385L85.8456 0.969397L85.8456 0.586311Z" fill="white"/>
</g>
</g>
<defs>
<clipPath id="clip0_216_6">
<rect width="1280" height="700" fill="white" transform="translate(-596 -618)"/>
</clipPath>
</defs>
</svg>
